<svg width="46" height="39" viewBox="0 0 46 39" fill="none" xmlns="http://www.w3.org/2000/svg">
<path d="M45.4069 36.5783L38.6897 30.9316V9.20831L35.5172 4.27331C35.2832 3.89706 34.9321 3.58204 34.5018 3.36228C34.0716 3.14251 33.5785 3.02636 33.0759 3.02636C32.5732 3.02636 32.0802 3.14251 31.6499 3.36228C31.2196 3.58204 30.8685 3.89706 30.6345 4.27331L27.6552 9.21998V21.645L2.42758 0.411647C2.23466 0.247113 1.98817 0.134902 1.71956 0.0893206C1.45094 0.0437394 1.17236 0.0668528 0.919333 0.155714C0.666307 0.244575 0.450299 0.395158 0.298849 0.588265C0.147399 0.781371 0.0673693 1.00825 0.0689625 1.23998V10.6666H3.06207V12.5333H0.0689625V20H3.06207V21.8666H0.0689625V29.625H3.06207V31.4916H0.0689625V37.4066C0.0689625 37.7161 0.214282 38.0128 0.472953 38.2316C0.731624 38.4504 1.08246 38.5733 1.44827 38.5733H44.4276C44.7016 38.5747 44.9698 38.507 45.1981 38.3789C45.4264 38.2508 45.6044 38.0681 45.7095 37.854C45.8145 37.64 45.8419 37.4044 45.788 37.1772C45.7341 36.95 45.6014 36.7415 45.4069 36.5783V36.5783ZM11.1034 29.3333V18.7633L23.6138 29.3333H11.1034ZM35.931 31.795H30.4138V28.96H35.931V31.795ZM35.931 27.1283H30.4138V9.79165L33.0897 5.39331L35.931 9.80331V27.1283Z" fill="#8BB3FF"/>
</svg>
