<svg width="500" height="297" viewBox="0 0 500 297" fill="none" xmlns="http://www.w3.org/2000/svg">
<path opacity="0.1" d="M500 173.177C500.027 187.642 496.078 201.836 488.584 214.209C488.584 229.34 481.529 243.055 470.087 253.05C467.223 255.549 464.139 257.784 460.874 259.729C460.743 259.812 460.607 259.89 460.472 259.969C460.227 260.113 459.982 260.258 459.733 260.406L459.501 260.542C448.667 266.576 436.457 269.708 424.056 269.633H94.917C92.2947 269.633 89.6956 269.528 87.1198 269.318C77.9662 268.597 68.9715 266.514 60.4328 263.138C58.7661 262.479 57.1315 261.771 55.529 261.014C54.7656 260.655 54.0094 260.287 53.2606 259.908C52.7929 259.672 52.3253 259.427 51.862 259.182C46.4774 256.345 41.4258 252.916 36.8008 248.96C21.9407 236.184 12.7274 218.536 12.7274 199.043C4.39152 186.207 -0.0305397 171.223 0.000158755 155.918C0.000158755 112.587 34.633 77.4606 77.3602 77.4606C78.6714 77.4606 79.9826 77.4999 81.2938 77.5699C81.4817 77.5699 81.6653 77.5699 81.8532 77.5961C89.056 65.319 98.6845 54.0384 110.262 44.1083C141.836 17.0542 187.981 0 239.384 0C282.574 0 322.054 12.0411 352.294 31.9362C363.754 25.4584 376.697 22.0626 389.86 22.0804C432.578 22.0804 467.22 57.2071 467.22 100.537C467.214 103.279 467.068 106.019 466.783 108.746C477.08 116.035 485.474 125.694 491.255 136.908C497.036 148.121 500.035 160.561 500 173.177V173.177Z" fill="#FF8A00"/>
<path d="M418.706 52.1547V261.586C418.706 263.72 417.858 265.767 416.349 267.276C414.841 268.785 412.794 269.633 410.66 269.633H89.3403C88.589 269.634 87.8414 269.528 87.12 269.318C85.4403 268.838 83.9628 267.824 82.9115 266.428C81.8602 265.033 81.2923 263.333 81.2939 261.586V168.125C81.2939 167.648 81.2939 167.176 81.2939 166.704V77.5699C81.4819 77.5699 81.6655 77.5699 81.8534 77.5961C89.0562 65.319 98.6847 54.0385 110.262 44.1084H410.66C412.794 44.1084 414.841 44.9561 416.349 46.4651C417.858 47.9741 418.706 50.0207 418.706 52.1547Z" fill="white"/>
<path d="M363.645 71.3068H319.121C314.781 71.3068 311.263 74.8251 311.263 79.1652C311.263 83.5052 314.781 87.0235 319.121 87.0235H363.645C367.985 87.0235 371.503 83.5052 371.503 79.1652C371.503 74.8251 367.985 71.3068 363.645 71.3068Z" fill="#3F3D56"/>
<path opacity="0.1" d="M362.342 73.9335H320.419C317.53 73.9335 315.188 76.2748 315.188 79.1629C315.188 82.0511 317.53 84.3924 320.419 84.3924H362.342C365.232 84.3924 367.574 82.0511 367.574 79.1629C367.574 76.2748 365.232 73.9335 362.342 73.9335Z" fill="black"/>
<path d="M361.608 74.5061H352.002C349.431 74.5061 347.347 76.5901 347.347 79.1608V79.1652C347.347 81.7359 349.431 83.8199 352.002 83.8199H361.608C364.179 83.8199 366.263 81.7359 366.263 79.1652V79.1608C366.263 76.5901 364.179 74.5061 361.608 74.5061Z" fill="#FF8A00"/>
<path d="M356.661 82.0761C358.268 82.0761 359.571 80.7728 359.571 79.1652C359.571 77.5576 358.268 76.2544 356.661 76.2544C355.053 76.2544 353.75 77.5576 353.75 79.1652C353.75 80.7728 355.053 82.0761 356.661 82.0761Z" fill="white"/>
<path d="M363.645 174.912H319.121C314.781 174.912 311.263 178.431 311.263 182.771C311.263 187.111 314.781 190.629 319.121 190.629H363.645C367.985 190.629 371.503 187.111 371.503 182.771C371.503 178.431 367.985 174.912 363.645 174.912Z" fill="#3F3D56"/>
<path opacity="0.1" d="M362.342 177.539H320.419C317.53 177.539 315.188 179.88 315.188 182.769C315.188 185.657 317.53 187.998 320.419 187.998H362.342C365.232 187.998 367.574 185.657 367.574 182.769C367.574 179.88 365.232 177.539 362.342 177.539Z" fill="black"/>
<path d="M361.608 178.112H352.002C349.431 178.112 347.347 180.196 347.347 182.766V182.771C347.347 185.342 349.431 187.425 352.002 187.425H361.608C364.179 187.425 366.263 185.342 366.263 182.771V182.766C366.263 180.196 364.179 178.112 361.608 178.112Z" fill="#FF8A00"/>
<path d="M356.661 185.682C358.268 185.682 359.571 184.378 359.571 182.771C359.571 181.163 358.268 179.86 356.661 179.86C355.053 179.86 353.75 181.163 353.75 182.771C353.75 184.378 355.053 185.682 356.661 185.682Z" fill="white"/>
<path d="M363.645 226.713H319.121C314.781 226.713 311.263 230.231 311.263 234.572C311.263 238.912 314.781 242.43 319.121 242.43H363.645C367.985 242.43 371.503 238.912 371.503 234.572C371.503 230.231 367.985 226.713 363.645 226.713Z" fill="#3F3D56"/>
<path opacity="0.1" d="M362.342 229.344H320.419C317.53 229.344 315.188 231.686 315.188 234.574C315.188 237.462 317.53 239.803 320.419 239.803H362.342C365.232 239.803 367.574 237.462 367.574 234.574C367.574 231.686 365.232 229.344 362.342 229.344Z" fill="black"/>
<path d="M361.608 229.917H352.002C349.431 229.917 347.347 232.001 347.347 234.571V234.576C347.347 237.147 349.431 239.231 352.002 239.231H361.608C364.179 239.231 366.263 237.147 366.263 234.576V234.571C366.263 232.001 364.179 229.917 361.608 229.917Z" fill="#FF8A00"/>
<path d="M356.661 237.482C358.268 237.482 359.571 236.179 359.571 234.571C359.571 232.964 358.268 231.661 356.661 231.661C355.053 231.661 353.75 232.964 353.75 234.571C353.75 236.179 355.053 237.482 356.661 237.482Z" fill="white"/>
<path opacity="0.7" d="M113.636 105.293H398.601" stroke="#3F3D56" stroke-miterlimit="10" stroke-linecap="round"/>
<path opacity="0.7" d="M113.636 157.959H398.601" stroke="#3F3D56" stroke-miterlimit="10" stroke-linecap="round"/>
<path opacity="0.7" d="M113.636 210.625H398.601" stroke="#3F3D56" stroke-miterlimit="10" stroke-linecap="round"/>
<path opacity="0.7" d="M113.636 264.602H398.601" stroke="#3F3D56" stroke-miterlimit="10" stroke-linecap="round"/>
<path opacity="0.1" d="M347.465 296.726C383.112 296.726 412.01 294.672 412.01 292.137C412.01 289.602 383.112 287.548 347.465 287.548C311.817 287.548 282.919 289.602 282.919 292.137C282.919 294.672 311.817 296.726 347.465 296.726Z" fill="#FF8A00"/>
<path d="M363.645 123.107H319.121C314.781 123.107 311.263 126.626 311.263 130.966C311.263 135.306 314.781 138.824 319.121 138.824H363.645C367.985 138.824 371.503 135.306 371.503 130.966C371.503 126.626 367.985 123.107 363.645 123.107Z" fill="#3F3D56"/>
<path opacity="0.1" d="M362.342 125.739H320.419C317.53 125.739 315.188 128.08 315.188 130.968C315.188 133.856 317.53 136.197 320.419 136.197H362.342C365.232 136.197 367.574 133.856 367.574 130.968C367.574 128.08 365.232 125.739 362.342 125.739Z" fill="black"/>
<path d="M316.945 280.559C317.631 280.459 318.317 280.319 318.99 280.161C318.902 280.835 318.707 281.49 318.413 282.102C317.745 283.37 316.438 284.134 315.236 284.912C315.07 284.758 314.856 284.665 314.63 284.65C314.404 284.634 314.179 284.698 313.995 284.829C312.548 285.703 311.394 286.936 309.86 287.688C309.322 287.95 308.763 288.16 308.238 288.453C306.966 289.228 305.913 290.316 305.179 291.612C304.742 292.29 304.388 293.182 304.816 293.855C304.98 294.082 305.192 294.272 305.437 294.41C306.06 294.844 306.806 295.067 307.565 295.043C308.002 295.004 308.439 294.838 308.916 294.764C309.515 294.659 310.127 294.711 310.73 294.659C311.605 294.546 312.462 294.324 313.282 293.999L316.285 292.95C317.133 292.676 317.958 292.337 318.754 291.936C319.231 291.678 319.681 291.376 320.166 291.14C320.712 290.898 321.276 290.7 321.853 290.546L323.557 290.048C323.802 289.954 324.066 289.92 324.327 289.947C324.563 289.991 324.764 290.14 325.004 290.201C325.371 290.266 325.749 290.23 326.097 290.096L328.072 289.536C328.489 289.442 328.887 289.276 329.248 289.047C330.153 288.404 330.314 287.128 330.31 286.014C330.306 284.325 330.115 282.643 329.742 280.996C329.489 281.099 329.267 281.266 329.099 281.481C328.898 281.197 328.68 280.924 328.448 280.664C327.538 279.606 326.866 278.364 326.477 277.023C327.191 276.493 327.786 275.82 328.225 275.048C327.181 271.066 326.11 267.023 323.986 263.509C323.291 262.364 322.495 261.289 321.8 260.161C319.733 256.884 319.309 252.731 316.945 249.672C316.72 249.362 316.599 248.989 316.599 248.606C316.599 248.223 316.72 247.849 316.945 247.539C317.216 247.181 317.653 246.844 317.57 246.398C317.509 246.079 317.176 245.786 317.303 245.489C317.364 245.345 317.513 245.266 317.627 245.162C318.029 244.786 317.976 244.152 318.016 243.601C318.103 242.211 318.929 240.979 319.724 239.86C319.886 239.592 320.1 239.36 320.354 239.178C320.568 239.047 320.821 238.986 321.036 238.855C321.787 238.378 321.735 237.273 322.093 236.451C322.565 235.367 323.754 234.821 324.532 233.942C325.524 232.823 325.778 231.267 326.822 230.293C326.929 230.19 327.045 230.096 327.168 230.013C326.714 231.671 326.507 233.386 326.551 235.105C326.451 241.018 327.919 247.137 327.233 253.024C326.691 257.683 329.536 262.329 333.571 264.659C335.15 265.501 336.802 266.202 338.505 266.752C341.031 267.657 343.549 268.588 346.027 269.628C347.775 270.363 349.5 271.151 351.202 271.993C353.302 273.019 355.344 274.158 357.321 275.406C359.751 276.967 362.185 278.549 363.911 280.878C364.968 280.825 365.983 280.451 366.822 279.807C367.487 280.332 368.291 280.73 368.916 281.311C369.779 282.21 370.357 283.345 370.577 284.571H370.314C370.345 285.153 370.371 285.734 370.402 286.32C370.425 286.469 370.402 286.621 370.336 286.757C370.273 286.843 370.193 286.916 370.1 286.971L368.754 287.884C367.775 288.544 366.696 289.379 366.643 290.564C366.616 290.908 366.72 291.25 366.936 291.521C367.265 291.827 367.686 292.017 368.133 292.063C370.476 292.557 372.876 293.037 375.249 292.718C376.376 292.565 377.543 292.194 378.278 291.32C378.951 290.524 379.152 289.445 379.335 288.418C379.628 286.669 379.873 284.882 380.065 283.107C380.124 281.901 380.369 280.712 380.791 279.58C380.823 279.482 380.89 279.398 380.979 279.344C381.079 279.3 381.197 279.344 381.302 279.3C381.407 279.257 381.477 279.095 381.512 278.964C381.945 277.238 382.155 275.464 382.137 273.684C382.158 273.222 382.088 272.76 381.932 272.325C381.747 271.96 381.483 271.642 381.159 271.392C380.836 271.143 380.46 270.969 380.061 270.883C379.264 270.721 378.456 270.624 377.644 270.594C376.966 270.529 376.295 270.406 375.638 270.227C375.372 270.126 375.086 270.089 374.803 270.118C374.662 270.137 374.534 270.206 374.44 270.313C374.347 270.42 374.296 270.557 374.296 270.699C374.311 270.8 374.347 270.897 374.401 270.983L373.719 270.848C373.168 270.747 372.408 270.507 371.582 270.306C371.582 270.166 371.591 270.02 371.608 269.869C371.61 269.712 371.567 269.559 371.485 269.426C371.403 269.293 371.285 269.186 371.145 269.117L359.598 262.946L357.439 261.792C352.71 259.261 347.823 256.923 343.081 254.392C342.766 254.488 342.504 254.126 342.412 253.802C342.321 253.479 342.255 253.094 341.953 252.95C341.805 252.88 341.608 252.884 341.516 252.758C341.438 252.644 341.408 252.504 341.433 252.369C341.586 250.065 343.234 247.941 342.906 245.66C342.766 244.685 342.264 243.724 342.469 242.766C342.622 242.106 343.094 241.569 343.343 240.939C343.911 239.532 343.343 237.841 343.964 236.464C344.378 235.559 344.659 234.599 344.799 233.614C345.091 231.651 345.681 229.744 346.547 227.959C346.965 227.058 347.513 226.223 348.173 225.481C348.518 225.105 348.907 224.768 349.239 224.379C350.245 223.177 350.616 221.578 350.9 220.009C351.416 217.207 351.774 214.301 351.127 211.521C350.909 210.577 350.577 209.637 350.59 208.667C350.59 207.504 351.057 206.171 350.494 205.24C351.074 204.774 351.462 204.109 351.582 203.374C351.59 203.109 351.642 202.848 351.735 202.6C351.927 202.331 352.176 202.107 352.465 201.945C352.916 201.601 353.261 201.137 353.46 200.606C353.66 200.074 353.705 199.498 353.592 198.942C354.191 199.213 354.821 198.606 355.105 198.007C355.389 197.408 355.603 196.696 356.21 196.425C356.621 196.25 357.085 196.355 357.522 196.241C358.217 196.062 358.64 195.367 359.13 194.856C360.126 193.78 361.538 193.225 362.845 192.565C366.717 190.594 369.873 187.478 372.963 184.41C374.574 182.913 376.038 181.265 377.334 179.488C377.679 178.977 377.994 178.448 378.291 177.906L378.369 177.867L378.396 177.963C378.444 178.155 378.501 178.348 378.557 178.536C378.697 178.973 378.855 179.44 378.994 179.886C379.467 181.197 379.978 182.596 380.939 183.588C381.234 183.891 381.57 184.151 381.936 184.362C382.73 184.789 383.603 185.05 384.501 185.131C384.842 185.175 385.188 185.201 385.533 185.218C385.878 185.236 386.223 185.249 386.564 185.258L393.636 185.446C391.206 181.923 391.014 177.343 391.175 173.055C391.582 162.041 393.728 150.926 391.735 140.087C391.494 138.776 391.175 137.465 390.376 136.412C389.327 135.035 387.605 134.371 385.926 133.982C384.248 133.593 382.504 133.405 380.935 132.701C379.624 132.102 378.418 131.141 377.001 130.826C375.958 130.651 374.892 130.669 373.855 130.878C372.578 131.068 371.309 131.292 370.048 131.551L369.742 131.617H369.755L369.545 131.665H369.488L369.3 131.709H369.23L369.056 131.757L368.977 131.779L368.815 131.831L368.724 131.862L368.575 131.91L368.479 131.949L368.339 132.002L368.234 132.045L368.107 132.102L368.002 132.155L367.884 132.211L367.779 132.273L367.67 132.334L367.565 132.404L367.465 132.469L367.36 132.544L367.272 132.614L367.172 132.701L367.089 132.775C367.055 132.807 367.023 132.84 366.993 132.876L366.918 132.95C366.884 132.989 366.852 133.03 366.822 133.072C366.822 133.094 366.783 133.116 366.765 133.142C366.748 133.169 366.687 133.256 366.647 133.322V133.348C366.549 133.512 366.468 133.686 366.407 133.868C366.376 133.96 366.346 134.051 366.324 134.143C366.279 134.33 366.247 134.52 366.228 134.711C366.228 134.808 366.228 134.908 366.206 135.004C366.206 135.197 366.206 135.393 366.206 135.586C366.224 135.914 366.26 136.241 366.315 136.565C364.765 137.481 363.473 138.775 362.558 140.326C361.644 141.877 361.138 143.635 361.087 145.435C361.037 147.235 361.443 149.018 362.269 150.618C363.094 152.218 364.312 153.583 365.808 154.585C365.829 154.757 365.841 154.931 365.843 155.105V155.218C365.819 155.837 365.755 156.453 365.651 157.063C363.923 156.727 362.166 156.571 360.406 156.595C359.357 156.595 358.3 156.691 357.242 156.774C356.108 155.407 355.052 153.977 354.078 152.491L351.744 149.069C350.942 147.951 350.212 146.783 349.558 145.572C348.986 144.462 348.54 143.282 347.902 142.207C346.591 139.991 344.449 138.107 344.182 135.542L343.566 135.669C343.23 135.118 342.806 134.537 342.648 134.218C341.804 132.397 341.154 130.492 340.708 128.536C340.494 127.522 340.332 126.464 339.777 125.59C339.398 125.044 338.94 124.558 338.418 124.148C337.575 123.354 336.586 122.731 335.507 122.312C335.025 122.137 334.512 122.062 334.001 122.092C333.489 122.122 332.988 122.256 332.53 122.487C332.388 122.421 332.242 122.362 332.093 122.312C331.552 122.106 330.969 122.034 330.394 122.1C329.819 122.167 329.269 122.372 328.789 122.697C327.871 123.4 327.478 124.607 327.338 125.756C327.096 127.347 327.369 128.973 328.116 130.398C328.99 131.962 330.555 133.02 331.849 134.261C332.749 135.133 333.537 136.114 334.196 137.181C334.399 139.542 334.338 141.918 334.016 144.266C333.85 145.271 333.579 146.259 333.501 147.273C333.182 150.935 335.087 154.598 334.405 158.199C334.293 158.741 334.351 159.304 334.573 159.81C334.795 160.317 335.168 160.742 335.642 161.027C336.621 161.556 337.766 161.626 338.842 161.901C340.953 162.443 342.775 163.794 344.908 164.296C345.891 164.532 346.914 164.576 347.893 164.838L348.046 164.886C347.292 165.74 346.754 166.762 346.477 167.867C346.04 169.703 346.451 171.665 346.014 173.501C345.655 175.013 344.755 176.333 343.868 177.613C342.16 180.084 340.45 182.561 338.737 185.044C337.592 186.785 336.329 188.445 334.956 190.013C332.6 192.587 328.536 194.628 327.338 197.723C327.312 197.648 327.277 197.574 327.251 197.5C325.555 198.745 324.921 201.066 323.571 202.679C322.911 203.461 322.098 204.095 321.385 204.821C320.503 205.757 319.695 206.761 318.968 207.823C316.958 210.612 314.934 213.413 313.496 216.538C312.745 218.164 312.163 219.856 311.564 221.538C309.213 228.169 305.376 234.458 303.78 241.315C303.391 242.989 302.373 244.502 302.22 246.215C302.05 248.042 302.884 249.799 303.75 251.411C305.061 253.877 306.521 256.272 307.683 258.807C308.37 260.284 308.964 261.809 309.729 263.252C310.564 264.825 311.586 266.285 312.46 267.836C314.589 271.818 315.813 276.219 316.945 280.559ZM345.861 155.319L345.651 155.214C344.867 154.875 344.15 154.4 343.531 153.811C341.647 151.801 340.839 148.772 340.249 146.066C340.179 145.743 340.118 145.424 340.061 145.1C342.347 148.348 344.506 151.704 345.861 155.328V155.319Z" fill="url(#paint0_linear)"/>
<path d="M337.273 129.073C337.058 128.064 336.901 127.015 336.346 126.149C335.966 125.606 335.506 125.123 334.982 124.716C334.134 123.927 333.143 123.309 332.063 122.893C331.521 122.69 330.939 122.618 330.365 122.685C329.79 122.751 329.24 122.953 328.759 123.274C327.836 123.973 327.447 125.17 327.303 126.333C327.062 127.914 327.334 129.53 328.081 130.944C328.977 132.5 330.524 133.54 331.822 134.781C332.765 135.691 333.585 136.719 334.261 137.841C334.569 138.422 334.942 138.968 335.371 139.467C335.588 139.711 335.859 139.902 336.163 140.024C336.466 140.146 336.794 140.196 337.12 140.17C337.665 140.026 338.159 139.734 338.549 139.327C339.082 138.859 340.516 138.016 340.559 137.286C340.594 136.687 339.475 135.332 339.2 134.768C338.359 132.943 337.713 131.034 337.273 129.073V129.073Z" fill="#FBBEBE"/>
<path opacity="0.1" d="M337.273 129.073C337.058 128.064 336.901 127.015 336.346 126.149C335.966 125.606 335.506 125.123 334.982 124.716C334.134 123.927 333.143 123.309 332.063 122.893C331.521 122.69 330.939 122.618 330.365 122.685C329.79 122.751 329.24 122.953 328.759 123.274C327.836 123.973 327.447 125.17 327.303 126.333C327.062 127.914 327.334 129.53 328.081 130.944C328.977 132.5 330.524 133.54 331.822 134.781C332.765 135.691 333.585 136.719 334.261 137.841C334.569 138.422 334.942 138.968 335.371 139.467C335.588 139.711 335.859 139.902 336.163 140.024C336.466 140.146 336.794 140.196 337.12 140.17C337.665 140.026 338.159 139.734 338.549 139.327C339.082 138.859 340.516 138.016 340.559 137.286C340.594 136.687 339.475 135.332 339.2 134.768C338.359 132.943 337.713 131.034 337.273 129.073V129.073Z" fill="black"/>
<path d="M367.504 157.845C365.199 157.227 362.819 156.933 360.432 156.971C356.451 157.028 352.351 157.994 348.557 156.77C347.582 156.438 346.632 156.033 345.717 155.559C344.932 155.223 344.213 154.751 343.592 154.165C341.704 152.168 340.891 149.156 340.306 146.473C339.788 143.772 339.489 141.035 339.41 138.287C338.426 138.746 337.386 139.196 336.307 139.104C335.227 139.012 334.121 138.182 334.121 137.098C334.283 139.641 334.401 142.216 333.977 144.725C333.811 145.721 333.54 146.704 333.466 147.71C333.142 151.35 335.052 154.987 334.37 158.575C334.256 159.113 334.314 159.674 334.536 160.178C334.758 160.681 335.133 161.102 335.607 161.381C336.586 161.91 337.736 161.975 338.811 162.255C340.922 162.793 342.745 164.134 344.886 164.637C345.87 164.869 346.897 164.912 347.876 165.175C349.27 165.546 350.542 166.346 351.967 166.595C353.033 166.787 354.152 166.656 355.214 166.748C356.154 166.827 357.071 167.072 358.016 167.098C360.323 167.155 362.5 165.852 364.029 164.121C365.559 162.391 366.534 159.93 367.504 157.845Z" fill="#F86D70"/>
<path opacity="0.1" d="M367.504 157.845C365.199 157.227 362.819 156.933 360.432 156.971C356.451 157.028 352.351 157.994 348.557 156.77C347.582 156.438 346.632 156.033 345.717 155.559C344.932 155.223 344.213 154.751 343.592 154.165C341.704 152.168 340.891 149.156 340.306 146.473C339.788 143.772 339.489 141.035 339.41 138.287C338.426 138.746 337.386 139.196 336.307 139.104C335.227 139.012 334.121 138.182 334.121 137.098C334.283 139.641 334.401 142.216 333.977 144.725C333.811 145.721 333.54 146.704 333.466 147.71C333.142 151.35 335.052 154.987 334.37 158.575C334.256 159.113 334.314 159.674 334.536 160.178C334.758 160.681 335.133 161.102 335.607 161.381C336.586 161.91 337.736 161.975 338.811 162.255C340.922 162.793 342.745 164.134 344.886 164.637C345.87 164.869 346.897 164.912 347.876 165.175C349.27 165.546 350.542 166.346 351.967 166.595C353.033 166.787 354.152 166.656 355.214 166.748C356.154 166.827 357.071 167.072 358.016 167.098C360.323 167.155 362.5 165.852 364.029 164.121C365.559 162.391 366.534 159.93 367.504 157.845Z" fill="black"/>
<path d="M373.824 270.363C374.537 270.451 375.229 270.667 375.865 271.001C376.696 271.591 377.317 272.43 377.64 273.396C378.593 275.747 378.789 278.335 378.833 280.874C378.868 282.924 378.798 285.022 378.064 286.936C377.863 287.54 377.516 288.085 377.054 288.523C376.644 288.844 376.17 289.073 375.664 289.196C374.567 289.497 373.3 289.493 372.404 288.794C371.407 288.016 371.158 286.639 370.948 285.393C370.664 283.715 370.262 281.927 369.012 280.769C368.086 279.895 366.757 279.458 366.084 278.4C365.28 277.128 365.704 275.467 366.215 274.051C366.652 272.823 367.312 270.336 368.597 269.707C369.882 269.078 372.491 270.122 373.824 270.363Z" fill="#FBBEBE"/>
<path d="M326.486 276.394C326.871 277.766 327.555 279.036 328.488 280.113C329.056 280.769 329.768 281.564 329.471 282.377C329.346 282.654 329.163 282.9 328.934 283.099C324.712 287.224 318.807 289.217 312.95 289.969C312.857 289.993 312.759 289.993 312.666 289.969C312.496 289.895 312.452 289.676 312.434 289.488C312.338 288.879 312.338 288.258 312.434 287.648C312.719 286.219 313.973 285.21 315.201 284.418C316.429 283.627 317.771 282.867 318.453 281.578C319.305 279.978 318.947 277.893 319.961 276.394C320.782 275.175 322.312 274.646 323.767 274.427C324.27 274.349 325.341 273.798 325.769 274.051C326.198 274.305 326.337 275.891 326.486 276.394Z" fill="#FBBEBE"/>
<path d="M374.401 270.214C374.401 270.073 374.452 269.936 374.546 269.83C374.639 269.724 374.768 269.655 374.908 269.637C375.191 269.609 375.476 269.645 375.743 269.742C376.399 269.925 377.071 270.049 377.749 270.113C378.562 270.142 379.372 270.237 380.17 270.398C380.57 270.481 380.945 270.653 381.269 270.9C381.594 271.147 381.859 271.464 382.045 271.827C382.201 272.261 382.271 272.721 382.251 273.182C382.269 274.949 382.059 276.712 381.626 278.426C381.591 278.558 381.538 278.71 381.412 278.759C381.285 278.807 381.193 278.759 381.093 278.807C381.047 278.832 381.007 278.865 380.975 278.906C380.943 278.946 380.919 278.993 380.905 279.043C380.481 280.163 380.235 281.343 380.175 282.539C379.982 284.287 379.738 286.062 379.445 287.81C379.274 288.833 379.06 289.908 378.387 290.695C377.648 291.569 376.481 291.932 375.354 292.085C372.976 292.399 370.577 291.923 368.23 291.433C367.782 291.389 367.36 291.2 367.028 290.896C366.812 290.627 366.708 290.286 366.735 289.943C366.787 288.767 367.871 287.937 368.846 287.281L370.197 286.377C370.291 286.324 370.371 286.251 370.433 286.162C370.499 286.027 370.522 285.874 370.498 285.725L370.411 283.977C371.305 283.993 372.178 284.251 372.938 284.723C373.698 285.196 374.315 285.865 374.725 286.661C374.908 287.032 375.087 287.465 375.472 287.609C375.722 287.666 375.985 287.624 376.204 287.491C376.423 287.358 376.583 287.145 376.648 286.897C376.763 286.396 376.75 285.874 376.608 285.38C375.817 281.154 376.005 276.809 375.524 272.539C375.494 272.058 375.343 271.593 375.087 271.184C374.882 270.891 374.449 270.607 374.401 270.214Z" fill="#F86D70"/>
<path d="M321.154 135.625H330.76C333.331 135.625 335.415 133.541 335.415 130.97V130.966C335.415 128.395 333.331 126.311 330.76 126.311H321.154C318.583 126.311 316.499 128.395 316.499 130.966V130.97C316.499 133.541 318.583 135.625 321.154 135.625Z" fill="#FF8A00"/>
<path d="M326.101 133.877C327.709 133.877 329.012 132.573 329.012 130.966C329.012 129.358 327.709 128.055 326.101 128.055C324.494 128.055 323.19 129.358 323.19 130.966C323.19 132.573 324.494 133.877 326.101 133.877Z" fill="white"/>
<path d="M315.607 286.599C315.411 286.927 315.1 287.181 314.917 287.517C314.813 287.677 314.77 287.87 314.798 288.059C314.825 288.248 314.92 288.42 315.065 288.544C315.262 288.63 315.481 288.652 315.69 288.605C319.912 288.078 323.874 286.283 327.054 283.457C327.583 283.011 328.052 282.498 328.448 281.932C328.82 281.368 329.135 280.677 329.76 280.441C330.14 282.082 330.336 283.761 330.345 285.446C330.345 286.556 330.188 287.819 329.283 288.461C328.92 288.687 328.521 288.85 328.103 288.942L326.128 289.501C325.778 289.633 325.399 289.67 325.031 289.606C324.799 289.545 324.593 289.397 324.353 289.353C324.092 289.325 323.829 289.36 323.584 289.453L321.875 289.952C321.297 290.102 320.733 290.299 320.188 290.542C319.698 290.773 319.248 291.071 318.772 291.328C317.975 291.728 317.148 292.064 316.298 292.334L313.295 293.378C312.473 293.7 311.614 293.92 310.739 294.034C310.135 294.086 309.519 294.034 308.92 294.134C308.483 294.213 308.046 294.379 307.566 294.414C306.807 294.438 306.061 294.217 305.437 293.785C305.194 293.647 304.982 293.459 304.816 293.234C304.379 292.565 304.76 291.682 305.179 291.005C305.918 289.718 306.971 288.639 308.239 287.867C308.763 287.578 309.327 287.369 309.864 287.106C311.399 286.363 312.557 285.122 314.003 284.274C315.371 283.474 316.25 285.542 315.607 286.599Z" fill="#F86D70"/>
<path d="M357.819 165.586C359.407 166.675 361.226 167.383 363.134 167.653C364.131 167.777 365.136 167.831 366.141 167.815C370.333 167.81 374.518 167.461 378.654 166.77C377.01 164.956 375.345 163.016 374.72 160.651C374.412 159.398 374.346 158.096 374.528 156.818C374.78 155.185 375.172 153.576 375.699 152.01C373.935 152.103 372.167 152.058 370.411 151.875C369.41 151.77 366.953 150.861 366.084 151.552C365.214 152.242 365.883 154.467 365.896 155.511C365.898 155.549 365.898 155.587 365.896 155.625C365.853 157.216 365.511 158.785 364.886 160.249C363.636 163.072 360.926 165.398 357.819 165.586Z" fill="#FBBEBE"/>
<path opacity="0.1" d="M365.9 155.489C367.161 156.313 368.584 156.857 370.074 157.083C371.563 157.309 373.083 157.213 374.532 156.801C374.784 155.167 375.176 153.559 375.703 151.993C373.94 152.085 372.172 152.04 370.415 151.857C369.414 151.752 366.958 150.843 366.088 151.534C365.218 152.224 365.887 154.445 365.9 155.489Z" fill="black"/>
<path d="M371.669 156.717C377.489 156.717 382.207 152 382.207 146.18C382.207 140.36 377.489 135.642 371.669 135.642C365.85 135.642 361.132 140.36 361.132 146.18C361.132 152 365.85 156.717 371.669 156.717Z" fill="#FBBEBE"/>
<path d="M326.962 199.497C326.959 200.347 327.176 201.184 327.593 201.925C328.009 202.665 328.611 203.285 329.34 203.724C330.151 204.15 331.02 204.456 331.918 204.633C336.726 205.795 341.674 206.731 346.626 206.447C347.699 206.437 348.76 206.215 349.746 205.791C350.237 205.573 350.668 205.241 351.004 204.822C351.339 204.403 351.569 203.909 351.674 203.383C351.679 203.121 351.729 202.862 351.822 202.618C352.014 202.35 352.264 202.127 352.552 201.967C353.003 201.627 353.348 201.167 353.549 200.64C353.749 200.112 353.796 199.539 353.684 198.986C354.283 199.257 354.912 198.649 355.196 198.055C355.481 197.461 355.699 196.744 356.302 196.486C356.713 196.311 357.176 196.416 357.613 196.302C358.308 196.123 358.732 195.428 359.222 194.926C360.218 193.859 361.639 193.308 362.941 192.648C366.822 190.695 369.982 187.596 373.081 184.55C374.692 183.066 376.156 181.429 377.452 179.663C377.799 179.156 378.12 178.63 378.413 178.09C379.347 176.296 380.158 174.44 380.839 172.535C381.232 171.512 381.63 170.437 381.468 169.353C381.468 169.257 381.433 169.161 381.411 169.06C381.209 168.365 380.885 167.711 380.454 167.128C379.383 165.555 377.98 164.069 376.136 163.579C374.292 163.09 372.456 163.68 370.581 164.078C369.96 164.217 369.331 164.313 368.697 164.366C366.713 164.506 364.764 163.973 362.832 163.444L360.743 162.867C359.698 162.579 359.174 161.315 358.12 161.093C357.647 161.021 357.164 161.046 356.7 161.167C354.554 161.573 352.386 162.102 350.494 163.195C350.071 163.437 349.667 163.712 349.287 164.017C347.914 165.042 346.926 166.5 346.481 168.156C346.044 169.978 346.455 171.927 346.018 173.75C345.66 175.253 344.755 176.565 343.872 177.832L338.724 185.205C337.576 186.933 336.311 188.58 334.939 190.135C332.168 193.147 327.037 195.411 326.962 199.497Z" fill="#F86D70"/>
<path d="M340.703 129.073C340.489 128.064 340.332 127.015 339.777 126.149C339.397 125.606 338.937 125.123 338.413 124.716C337.565 123.927 336.574 123.309 335.494 122.893C334.952 122.69 334.37 122.618 333.796 122.685C333.221 122.751 332.671 122.953 332.189 123.274C331.267 123.973 330.878 125.17 330.734 126.333C330.493 127.914 330.765 129.53 331.512 130.944C332.386 132.5 333.955 133.54 335.253 134.781C336.196 135.691 337.016 136.719 337.692 137.841C338 138.422 338.373 138.968 338.802 139.467C339.019 139.711 339.29 139.902 339.594 140.024C339.897 140.146 340.224 140.196 340.55 140.17C341.095 140.026 341.59 139.734 341.98 139.327C342.513 138.859 343.946 138.016 343.99 137.286C344.025 136.687 342.906 135.332 342.631 134.768C341.79 132.943 341.144 131.034 340.703 129.073Z" fill="#FBBEBE"/>
<path d="M303.676 251.119C304.987 253.566 306.447 255.926 307.631 258.461C308.317 259.934 308.912 261.446 309.676 262.88C310.511 264.44 311.538 265.891 312.412 267.43C314.598 271.32 315.835 275.708 316.967 280.03C320.13 279.56 323.174 278.489 325.935 276.875C326.121 276.77 326.3 276.655 326.473 276.529C327.212 276.001 327.829 275.32 328.282 274.532C327.238 270.598 326.167 266.564 324.038 263.072C323.343 261.936 322.548 260.887 321.853 259.746C319.786 256.49 319.357 252.386 316.993 249.34C316.767 249.033 316.645 248.663 316.645 248.282C316.645 247.901 316.767 247.531 316.993 247.224C317.264 246.87 317.701 246.534 317.618 246.092C317.557 245.773 317.224 245.485 317.351 245.188C317.412 245.043 317.561 244.965 317.675 244.86C318.077 244.493 318.024 243.859 318.064 243.317C318.151 241.936 318.977 240.725 319.777 239.598C319.939 239.332 320.153 239.102 320.406 238.92C320.62 238.789 320.874 238.728 321.088 238.597C321.84 238.129 321.787 237.028 322.15 236.21C322.622 235.135 323.811 234.589 324.593 233.719C325.585 232.609 325.835 231.066 326.884 230.096C326.992 229.995 327.107 229.901 327.229 229.816C326.774 231.468 326.566 233.178 326.613 234.89C326.512 240.765 327.981 246.84 327.294 252.675C326.752 257.299 329.602 261.914 333.641 264.23C335.224 265.067 336.879 265.763 338.584 266.311C341.11 267.207 343.636 268.129 346.114 269.165C347.863 269.89 349.611 270.677 351.298 271.512C353.398 272.53 355.441 273.662 357.417 274.904C359.851 276.451 362.29 278.024 364.016 280.336C365.69 280.293 367.224 279.287 368.282 277.989C369.34 276.691 370 275.122 370.616 273.571C371.154 272.229 371.687 270.852 371.726 269.405C371.727 269.25 371.683 269.097 371.602 268.965C371.52 268.833 371.402 268.727 371.263 268.658L359.698 262.539L357.513 261.394C352.78 258.881 347.898 256.556 343.138 254.047C342.819 254.139 342.557 253.776 342.465 253.461C342.373 253.147 342.308 252.753 342.006 252.613C341.853 252.543 341.661 252.543 341.569 252.421C341.494 252.308 341.466 252.17 341.49 252.036C341.643 249.746 343.295 247.64 342.963 245.371C342.823 244.401 342.321 243.448 342.526 242.5C342.679 241.84 343.151 241.307 343.4 240.682C343.964 239.283 343.4 237.622 344.021 236.237C344.435 235.338 344.716 234.384 344.856 233.404C345.153 231.454 345.75 229.561 346.626 227.793C347.044 226.896 347.592 226.065 348.252 225.328C348.601 224.956 348.99 224.62 349.318 224.235C350.328 223.042 350.695 221.451 350.983 219.917C351.499 217.133 351.857 214.235 351.21 211.486C350.992 210.546 350.66 209.615 350.673 208.649C350.673 207.377 351.245 205.887 350.363 204.965C349.99 204.634 349.538 204.405 349.051 204.3C346.995 203.746 344.898 203.359 342.78 203.142L333.138 201.888C332.024 201.814 330.934 201.531 329.926 201.053C328.614 200.332 327.74 198.99 327.216 197.592C325.52 198.828 324.882 201.132 323.531 202.731C322.871 203.514 322.058 204.143 321.346 204.86C320.461 205.789 319.651 206.787 318.925 207.845C316.91 210.612 314.882 213.4 313.44 216.499C312.692 218.112 312.128 219.794 311.508 221.464C309.152 228.05 305.31 234.3 303.715 241.105C303.322 242.771 302.303 244.27 302.15 245.974C301.971 247.779 302.806 249.528 303.676 251.119Z" fill="#434175"/>
<path opacity="0.1" d="M354.253 196.442C354.487 196.88 354.609 197.37 354.607 197.867C354.392 196.8 352.924 196.21 352.832 195.157C352.788 194.672 352.876 194.694 353.177 194.952C353.636 195.332 353.833 196.023 354.253 196.442Z" fill="black"/>
<path opacity="0.1" d="M349.79 199.676C350.098 199.94 350.329 200.281 350.459 200.664C350.703 201.203 350.75 201.812 350.59 202.382C350.376 202.281 350.301 202.019 350.236 201.787C350.137 201.43 349.99 201.087 349.799 200.769C349.624 200.494 348.824 199.838 348.833 199.537C348.82 199.082 349.576 199.515 349.79 199.676Z" fill="black"/>
<path opacity="0.1" d="M349.274 164.017C349.952 164.597 350.698 165.093 351.495 165.494C353.584 166.552 355.896 167.107 357.998 168.116C359.035 168.643 360.042 169.227 361.014 169.864C363.099 171.176 365.179 172.487 367.26 173.82C367.76 174.109 368.223 174.46 368.636 174.864C369.388 175.669 369.384 177.05 370.07 177.924C370.449 178.356 370.914 178.704 371.436 178.944C371.958 179.185 372.524 179.314 373.099 179.322C374.249 179.332 375.393 179.14 376.477 178.754C377.135 178.56 377.78 178.325 378.409 178.051C379.067 177.773 379.689 177.418 380.262 176.993C380.835 176.59 381.323 176.078 381.698 175.486C382.073 174.895 382.328 174.235 382.447 173.545C382.523 172.591 382.396 171.632 382.076 170.73C381.903 170.143 381.68 169.571 381.412 169.021C381.258 168.709 381.079 168.409 380.878 168.125C379.445 166.093 376.919 165.135 374.475 164.659C373.186 164.41 371.875 164.257 370.581 164.038C369.961 164.177 369.331 164.274 368.697 164.327C366.713 164.467 364.764 163.934 362.832 163.405L360.743 162.828C359.698 162.539 359.174 161.276 358.121 161.053C357.647 160.982 357.164 161.007 356.7 161.128C354.554 161.534 352.386 162.063 350.494 163.156C350.065 163.409 349.657 163.697 349.274 164.017V164.017Z" fill="black"/>
<path d="M344.183 136.049C344.449 138.597 346.6 140.468 347.911 142.666C348.549 143.737 348.995 144.908 349.567 146.014C350.222 147.224 350.951 148.392 351.753 149.51L354.091 152.906C355.468 154.904 356.857 156.919 358.614 158.588C361.674 159.108 364.253 161.385 367.159 162.491C369.489 163.365 372.024 163.496 374.467 163.973C376.91 164.449 379.436 165.402 380.87 167.439C381.406 168.244 381.81 169.129 382.067 170.061C382.387 170.961 382.514 171.919 382.439 172.871C382.32 173.562 382.065 174.223 381.69 174.816C381.315 175.408 380.827 175.921 380.253 176.324C379.104 177.121 377.825 177.712 376.473 178.072C375.388 178.456 374.245 178.648 373.094 178.641C372.519 178.632 371.952 178.503 371.43 178.262C370.907 178.021 370.441 177.674 370.061 177.242C369.379 176.368 369.384 174.974 368.632 174.183C368.219 173.778 367.756 173.427 367.255 173.138L361.01 169.204C360.037 168.567 359.031 167.983 357.994 167.456C355.892 166.429 353.579 165.874 351.49 164.834C349.401 163.794 347.456 162.032 347.045 159.729C345.774 152.653 340.874 146.687 336.687 140.843C336.823 140.817 336.783 140.503 336.831 140.371C337.437 139 338.526 137.899 339.891 137.277C341.237 136.547 342.732 136.359 344.183 136.049Z" fill="#F86D70"/>
<path d="M366.259 136.101C366.18 135.334 366.332 134.561 366.696 133.881C367.391 132.727 368.842 132.321 370.162 132.05C371.481 131.779 372.697 131.569 373.973 131.385C375.011 131.177 376.079 131.157 377.124 131.329C378.549 131.643 379.746 132.6 381.058 133.191C382.631 133.894 384.379 134.065 386.058 134.467C387.736 134.869 389.462 135.511 390.516 136.879C391.315 137.915 391.634 139.239 391.875 140.529C393.872 151.294 391.722 162.334 391.315 173.274C391.154 177.531 391.346 182.08 393.78 185.581L386.696 185.393C384.882 185.345 382.933 185.249 381.508 184.13C380.249 183.147 379.655 181.56 379.121 180.061C378.639 178.897 378.332 177.667 378.212 176.412C378.103 173.842 379.563 171.32 379.086 168.789C378.732 166.901 377.338 165.371 375.887 164.135C374.436 162.898 372.784 161.818 371.591 160.31C369.471 157.622 369.065 153.955 369.327 150.542C369.484 148.514 369.851 146.482 369.672 144.454C369.582 142.902 369.023 141.414 368.068 140.188C366.954 138.842 366.363 138.003 366.259 136.101Z" fill="#434175"/>
<path opacity="0.1" d="M366.696 133.881C367.377 132.745 368.794 132.334 370.092 132.067C369.403 132.309 368.812 132.77 368.409 133.378C368.048 134.061 367.896 134.835 367.972 135.603C368.068 137.504 368.658 138.343 369.786 139.69C370.744 140.914 371.306 142.403 371.394 143.955C371.569 145.983 371.206 148.011 371.049 150.044C370.782 153.453 371.189 157.124 373.313 159.812C374.502 161.32 376.141 162.395 377.609 163.636C379.078 164.877 380.454 166.403 380.808 168.291C381.28 170.817 379.821 173.343 379.934 175.913C380.05 177.167 380.355 178.396 380.839 179.558C381.377 181.062 381.971 182.648 383.225 183.632C384.65 184.751 386.604 184.847 388.418 184.895L393.435 185.026C393.544 185.21 393.662 185.393 393.785 185.572L386.7 185.384C384.886 185.336 382.937 185.24 381.512 184.121C380.253 183.138 379.659 181.551 379.126 180.052C378.643 178.888 378.336 177.658 378.217 176.403C378.107 173.833 379.567 171.311 379.091 168.78C378.737 166.892 377.343 165.363 375.891 164.126C374.44 162.889 372.788 161.809 371.595 160.301C369.475 157.613 369.069 153.946 369.331 150.533C369.489 148.505 369.856 146.473 369.676 144.445C369.587 142.893 369.027 141.405 368.072 140.179C366.945 138.833 366.355 137.994 366.254 136.092C366.179 135.328 366.333 134.558 366.696 133.881V133.881Z" fill="black"/>
<path opacity="0.1" d="M313.47 244.821L326.486 276.529C327.225 276.001 327.842 275.32 328.295 274.532C327.251 270.598 326.18 266.564 324.051 263.072C323.356 261.936 322.561 260.887 321.866 259.746C319.799 256.49 319.37 252.386 317.006 249.34C316.78 249.033 316.658 248.663 316.658 248.282C316.658 247.901 316.78 247.531 317.006 247.224C317.277 246.87 317.714 246.534 317.631 246.092C317.57 245.773 317.237 245.485 317.364 245.188C317.425 245.043 317.574 244.965 317.688 244.86C318.09 244.493 318.037 243.859 318.077 243.317C318.164 241.936 318.99 240.725 319.79 239.598C319.952 239.332 320.166 239.102 320.419 238.92C320.633 238.789 320.887 238.728 321.101 238.597C321.853 238.129 321.8 237.028 322.163 236.21C322.635 235.135 323.824 234.589 324.606 233.719C325.598 232.609 325.848 231.066 326.897 230.096L326.988 229.869L326.005 223.75L313.47 244.821Z" fill="black"/>
<path d="M427.032 282.692C435.227 282.692 441.87 281.414 441.87 279.838C441.87 278.262 435.227 276.984 427.032 276.984C418.837 276.984 412.194 278.262 412.194 279.838C412.194 281.414 418.837 282.692 427.032 282.692Z" fill="#FF8A00"/>
<path d="M427.281 280.883C428.235 280.883 429.008 279.871 429.008 278.623C429.008 277.375 428.235 276.363 427.281 276.363C426.328 276.363 425.555 277.375 425.555 278.623C425.555 279.871 426.328 280.883 427.281 280.883Z" fill="#3F3D56"/>
<path d="M427.281 278.12C428.235 278.12 429.008 277.109 429.008 275.861C429.008 274.613 428.235 273.601 427.281 273.601C426.328 273.601 425.555 274.613 425.555 275.861C425.555 277.109 426.328 278.12 427.281 278.12Z" fill="#3F3D56"/>
<path d="M427.281 275.354C428.235 275.354 429.008 274.342 429.008 273.094C429.008 271.846 428.235 270.834 427.281 270.834C426.328 270.834 425.555 271.846 425.555 273.094C425.555 274.342 426.328 275.354 427.281 275.354Z" fill="#3F3D56"/>
<path d="M427.281 272.592C428.235 272.592 429.008 271.58 429.008 270.332C429.008 269.084 428.235 268.072 427.281 268.072C426.328 268.072 425.555 269.084 425.555 270.332C425.555 271.58 426.328 272.592 427.281 272.592Z" fill="#3F3D56"/>
<path d="M427.281 269.825C428.235 269.825 429.008 268.813 429.008 267.565C429.008 266.317 428.235 265.306 427.281 265.306C426.328 265.306 425.555 266.317 425.555 267.565C425.555 268.813 426.328 269.825 427.281 269.825Z" fill="#3F3D56"/>
<path d="M427.281 267.063C428.235 267.063 429.008 266.051 429.008 264.803C429.008 263.555 428.235 262.544 427.281 262.544C426.328 262.544 425.555 263.555 425.555 264.803C425.555 266.051 426.328 267.063 427.281 267.063Z" fill="#3F3D56"/>
<path d="M427.281 264.3C428.235 264.3 429.008 263.289 429.008 262.041C429.008 260.793 428.235 259.781 427.281 259.781C426.328 259.781 425.555 260.793 425.555 262.041C425.555 263.289 426.328 264.3 427.281 264.3Z" fill="#3F3D56"/>
<path d="M420.813 243.125C420.577 242.824 420.362 242.507 420.17 242.176L424.707 241.429L419.799 241.468C419.329 240.443 419.073 239.334 419.046 238.207C419.019 237.079 419.221 235.959 419.642 234.912L426.228 238.326L420.153 233.863C420.72 232.875 421.484 232.014 422.399 231.335C423.313 230.655 424.359 230.172 425.469 229.915C426.579 229.659 427.73 229.634 428.85 229.842C429.97 230.051 431.035 230.488 431.978 231.128C432.921 231.767 433.723 232.594 434.331 233.557C434.94 234.52 435.344 235.598 435.517 236.724C435.689 237.851 435.628 239 435.336 240.102C435.044 241.203 434.528 242.232 433.82 243.125C434.189 243.591 434.506 244.097 434.764 244.633L428.872 247.692L435.157 245.585C435.446 246.44 435.593 247.336 435.594 248.238C435.597 250.096 434.971 251.899 433.82 253.356C434.78 254.577 435.377 256.043 435.542 257.586C435.708 259.13 435.437 260.689 434.758 262.086C434.08 263.482 433.022 264.66 431.706 265.484C430.39 266.308 428.869 266.744 427.316 266.744C425.764 266.744 424.242 266.308 422.926 265.484C421.61 264.66 420.553 263.482 419.874 262.086C419.196 260.689 418.924 259.13 419.09 257.586C419.256 256.043 419.853 254.577 420.813 253.356C419.666 251.898 419.043 250.096 419.043 248.241C419.043 246.385 419.666 244.583 420.813 243.125V243.125Z" fill="#FF8A00"/>
<path opacity="0.1" d="M435.594 248.238C435.597 250.096 434.971 251.899 433.82 253.356C434.78 254.577 435.377 256.043 435.542 257.586C435.708 259.13 435.437 260.689 434.758 262.086C434.08 263.482 433.022 264.66 431.706 265.484C430.39 266.308 428.869 266.744 427.316 266.744C425.764 266.744 424.242 266.308 422.926 265.484C421.61 264.66 420.553 263.482 419.874 262.086C419.196 260.689 418.924 259.13 419.09 257.586C419.256 256.043 419.853 254.577 420.813 253.356C419.703 251.949 435.594 247.312 435.594 248.238Z" fill="black"/>
<path d="M455.931 250.061C461.442 250.061 465.909 249.202 465.909 248.142C465.909 247.083 461.442 246.224 455.931 246.224C450.42 246.224 445.953 247.083 445.953 248.142C445.953 249.202 450.42 250.061 455.931 250.061Z" fill="#FF8A00"/>
<path d="M456.101 248.85C456.743 248.85 457.264 248.169 457.264 247.329C457.264 246.489 456.743 245.808 456.101 245.808C455.459 245.808 454.938 246.489 454.938 247.329C454.938 248.169 455.459 248.85 456.101 248.85Z" fill="#3F3D56"/>
<path d="M456.101 246.993C456.743 246.993 457.264 246.312 457.264 245.472C457.264 244.632 456.743 243.951 456.101 243.951C455.459 243.951 454.938 244.632 454.938 245.472C454.938 246.312 455.459 246.993 456.101 246.993Z" fill="#3F3D56"/>
<path d="M456.101 245.131C456.743 245.131 457.264 244.45 457.264 243.61C457.264 242.77 456.743 242.089 456.101 242.089C455.459 242.089 454.938 242.77 454.938 243.61C454.938 244.45 455.459 245.131 456.101 245.131Z" fill="#3F3D56"/>
<path d="M456.101 243.273C456.743 243.273 457.264 242.592 457.264 241.752C457.264 240.912 456.743 240.231 456.101 240.231C455.459 240.231 454.938 240.912 454.938 241.752C454.938 242.592 455.459 243.273 456.101 243.273Z" fill="#3F3D56"/>
<path d="M456.101 241.416C456.743 241.416 457.264 240.735 457.264 239.895C457.264 239.055 456.743 238.374 456.101 238.374C455.459 238.374 454.938 239.055 454.938 239.895C454.938 240.735 455.459 241.416 456.101 241.416Z" fill="#3F3D56"/>
<path d="M456.101 239.558C456.743 239.558 457.264 238.877 457.264 238.037C457.264 237.197 456.743 236.516 456.101 236.516C455.459 236.516 454.938 237.197 454.938 238.037C454.938 238.877 455.459 239.558 456.101 239.558Z" fill="#3F3D56"/>
<path d="M456.101 237.697C456.743 237.697 457.264 237.016 457.264 236.176C457.264 235.336 456.743 234.655 456.101 234.655C455.459 234.655 454.938 235.336 454.938 236.176C454.938 237.016 455.459 237.697 456.101 237.697Z" fill="#3F3D56"/>
<path d="M451.752 223.461C451.59 223.261 451.443 223.047 451.315 222.823L454.375 222.321L451.075 222.347C450.737 221.618 450.563 220.825 450.563 220.022C450.563 219.307 450.699 218.6 450.966 217.937L455.397 220.236L451.311 217.233C451.69 216.565 452.203 215.983 452.818 215.523C453.434 215.063 454.137 214.735 454.886 214.561C455.634 214.386 456.41 214.368 457.165 214.509C457.92 214.649 458.638 214.944 459.274 215.375C459.91 215.806 460.449 216.365 460.858 217.015C461.268 217.665 461.538 218.393 461.652 219.152C461.766 219.912 461.722 220.687 461.522 221.428C461.321 222.17 460.97 222.862 460.489 223.461C460.737 223.775 460.949 224.115 461.123 224.475L457.163 226.534L461.385 225.113C461.684 225.993 461.759 226.934 461.602 227.849C461.446 228.765 461.063 229.628 460.489 230.358C461.137 231.179 461.541 232.166 461.654 233.205C461.767 234.245 461.585 235.296 461.129 236.237C460.673 237.178 459.961 237.971 459.075 238.527C458.189 239.082 457.164 239.376 456.118 239.376C455.073 239.376 454.048 239.082 453.162 238.527C452.276 237.971 451.564 237.178 451.108 236.237C450.652 235.296 450.47 234.245 450.583 233.205C450.696 232.166 451.1 231.179 451.748 230.358C450.975 229.378 450.555 228.167 450.555 226.919C450.555 225.671 450.975 224.459 451.748 223.479L451.752 223.461Z" fill="#FF8A00"/>
<path opacity="0.1" d="M461.687 226.901C461.688 228.148 461.269 229.36 460.498 230.341C461.146 231.162 461.55 232.148 461.663 233.188C461.776 234.228 461.594 235.278 461.138 236.219C460.682 237.16 459.97 237.954 459.084 238.509C458.198 239.064 457.173 239.359 456.127 239.359C455.081 239.359 454.057 239.064 453.171 238.509C452.285 237.954 451.573 237.16 451.117 236.219C450.66 235.278 450.479 234.228 450.592 233.188C450.705 232.148 451.109 231.162 451.757 230.341C451.005 229.392 461.687 226.276 461.687 226.901Z" fill="black"/>
<defs>
<linearGradient id="paint0_linear" x1="347.889" y1="295.061" x2="347.889" y2="122.133" gradientUnits="userSpaceOnUse">
<stop stop-color="#808080" stop-opacity="0.25"/>
<stop offset="0.54" stop-color="#808080" stop-opacity="0.12"/>
<stop offset="1" stop-color="#808080" stop-opacity="0.1"/>
</linearGradient>
</defs>
</svg>
